<?xml version="1.0" encoding="UTF-8"?>
<svg id="Layer_2" data-name="Layer 2" xmlns="http://www.w3.org/2000/svg" xmlns:xlink="http://www.w3.org/1999/xlink" viewBox="0 0 178.4 204">
  <defs>
    <style>
      .cls-1 {
        fill: url(#linear-gradient);
      }

      .cls-1, .cls-2, .cls-3 {
        stroke-width: 0px;
      }

      .cls-2 {
        fill: #162b2e;
      }

      .cls-3 {
        fill: url(#linear-gradient-2);
      }
    </style>
    <linearGradient id="linear-gradient" x1="43.67" y1="13.19" x2="43.99" y2="133.94" gradientUnits="userSpaceOnUse">
      <stop offset="0" stop-color="#44ad9e"/>
      <stop offset=".25" stop-color="#3a978d"/>
      <stop offset=".56" stop-color="#286e70"/>
      <stop offset=".86" stop-color="#231f20"/>
    </linearGradient>
    <linearGradient id="linear-gradient-2" x1="23.91" y1="140.83" x2="158.27" y2="140.83" gradientUnits="userSpaceOnUse">
      <stop offset="0" stop-color="#31998f"/>
      <stop offset=".32" stop-color="#25a3b0"/>
      <stop offset=".69" stop-color="#35b0a4"/>
      <stop offset="1" stop-color="#2f70d2"/>
    </linearGradient>
  </defs>
  <g id="Layer_1-2" data-name="Layer 1">
    <g>
      <rect class="cls-2" width="178.4" height="204"/>
      <g>
        <path class="cls-1" d="M66.8,53.76v90.4c-.86,0-1.72-.03-2.57-.09h-.05c-23.35-3.25-41.88-27.37-43.24-51.02,0-.03,0-.08,0-.11-.05-1.06-.08-2.12-.08-3.19V19.77c0-4.73,3.24-8.56,7.23-8.56h2.79c19.84,0,35.93,19.05,35.93,42.55Z"/>
        <path class="cls-3" d="M155.22,171.47v9.63c0,4.2-2.88,7.61-6.42,7.61h-52.94c-5.99-.19-30.96-1.79-51.62-25.43-24.44-27.95-23.53-64.64-23.31-70.33,0,0,0,0,0,0,1.31,23.69,19.85,47.88,43.24,51.12.03,0,.06,0,.09,0,8.27,1.13,25.83-.23,34.78-6.53,1.1-.77,8.18-4.56,10.79-5.49,3.87-1.37,7.26-1.47,9.46-1.52h1.37c19.09,0,34.56,18.32,34.56,40.92Z"/>
      </g>
    </g>
  </g>
</svg>