<?xml version="1.0" encoding="UTF-8"?>
<svg id="Layer_2" data-name="Layer 2" xmlns="http://www.w3.org/2000/svg" xmlns:xlink="http://www.w3.org/1999/xlink" viewBox="0 0 535.73 177.49">
  <defs>
    <style>
      .cls-1 {
        fill: url(#linear-gradient);
      }

      .cls-1, .cls-2 {
        stroke-width: 0px;
      }

      .cls-3, .cls-4, .cls-5, .cls-6, .cls-7 {
        stroke: #43ac9d;
      }

      .cls-3, .cls-4, .cls-5, .cls-7 {
        fill: none;
        stroke-linecap: round;
      }

      .cls-3, .cls-5, .cls-6 {
        stroke-miterlimit: 10;
      }

      .cls-3, .cls-7 {
        stroke-width: 8.5px;
      }

      .cls-4, .cls-5 {
        stroke-width: 3.5px;
      }

      .cls-4, .cls-7 {
        stroke-linejoin: round;
      }

      .cls-2 {
        fill: url(#linear-gradient-2);
      }

      .cls-6 {
        fill: #43ac9d;
        stroke-width: .5px;
      }
    </style>
    <linearGradient id="linear-gradient" x1="22.82" y1="1.97" x2="23.13" y2="122.73" gradientUnits="userSpaceOnUse">
      <stop offset="0" stop-color="#44ad9e"/>
      <stop offset=".25" stop-color="#3a978d"/>
      <stop offset=".56" stop-color="#286e70"/>
      <stop offset=".86" stop-color="#231f20"/>
    </linearGradient>
    <linearGradient id="linear-gradient-2" x1="3.06" y1="129.61" x2="137.42" y2="129.61" gradientUnits="userSpaceOnUse">
      <stop offset="0" stop-color="#31998f"/>
      <stop offset=".32" stop-color="#25a3b0"/>
      <stop offset=".69" stop-color="#35b0a4"/>
      <stop offset="1" stop-color="#2f70d2"/>
    </linearGradient>
  </defs>
  <g id="Layer_1-2" data-name="Layer 1">
    <g>
      <path class="cls-1" d="M45.95,42.55v90.4c-.86,0-1.72-.03-2.57-.09h-.05C19.97,129.62,1.44,105.5.08,81.84c0-.03,0-.08,0-.11-.05-1.06-.08-2.12-.08-3.19V8.56C0,3.83,3.24,0,7.23,0h2.79c19.84,0,35.93,19.05,35.93,42.55Z"/>
      <path class="cls-2" d="M134.37,160.25v9.63c0,4.2-2.88,7.61-6.42,7.61h-52.94c-5.99-.19-30.96-1.79-51.62-25.43C-1.05,124.11-.14,87.42.08,81.73c0,0,0,0,0,0,1.31,23.69,19.85,47.88,43.24,51.12.03,0,.06,0,.09,0,8.27,1.13,25.83-.23,34.78-6.53,1.1-.77,8.18-4.56,10.79-5.49,3.87-1.37,7.26-1.47,9.46-1.52h1.37c19.09,0,34.56,18.32,34.56,40.92Z"/>
    </g>
    <path class="cls-3" d="M172.88,9.43v95.79c.45,1.96,1.63,5.91,4.92,9.7,3.11,3.58,6.59,5.29,8.44,6.05"/>
    <path class="cls-3" d="M274.28,63.42v56.13"/>
    <path class="cls-3" d="M389.11,63.42v55.84"/>
    <path class="cls-3" d="M416.48,63.9v55.65"/>
    <circle class="cls-6" cx="389.11" cy="44.6" r="6.43"/>
    <path class="cls-3" d="M416.48,82.27c3.39-10.57,13.36-17.64,24.26-17.3,10.35.32,19.5,7.27,22.71,17.3v37.28"/>
    <path class="cls-7" d="M531.14,82.27v37.29"/>
    <path class="cls-7" d="M490.87,70.92c1.42-1.44,7.8-7.63,17.14-7.5,10.13.15,19.6,7.68,23.14,18.85"/>
    <path class="cls-3" d="M531.14,88.91h-28.93c-8.84,2.27-15.01,8.88-15.2,15.52-.28,9.42,11.57,16.02,20.57,16.19,9.88.19,19.39-7.33,23.57-18.89"/>
    <path class="cls-5" d="M190.02,149.93c-.4-.63-3.85-5.86-10.14-6.29-4.14-.28-9.81,1.5-11,5.47-.59,1.98-.04,4.42,1.43,6.15,2.69,3.16,6.49,1.64,14.14,4.65,3.59,1.41,5.87,2.35,6.71,4.51,1.22,3.13-1.2,7.12-4,9.16-4.63,3.37-10.49,1.52-11.71,1.09-5.03-1.76-7.31-5.8-7.86-6.84"/>
    <path class="cls-5" d="M532.51,149.95c-.4-.63-3.85-5.89-10.14-6.31-4.14-.28-9.81,1.51-11,5.49-.59,1.99-.04,4.44,1.43,6.17,2.69,3.18,6.49,1.64,14.14,4.66,3.59,1.42,5.87,2.35,6.71,4.53,1.22,3.14-1.2,7.15-4,9.19-4.63,3.39-10.49,1.53-11.71,1.1-5.03-1.76-7.31-5.82-7.86-6.86"/>
    <path class="cls-5" d="M226.83,143.61c8.81,0,15.85,7.46,15.82,16.09-.03,8.58-7.05,15.97-15.82,15.97s-15.79-7.39-15.82-15.97c-.03-8.63,7.01-16.09,15.82-16.09Z"/>
    <path class="cls-5" d="M426.61,143.61c8.81,0,15.85,7.46,15.82,16.09-.03,8.58-7.05,15.97-15.82,15.97s-15.79-7.39-15.82-15.97c-.03-8.63,7.01-16.09,15.82-16.09Z"/>
    <path class="cls-5" d="M264.21,143.61v32.07h18.42"/>
    <path class="cls-5" d="M300.84,143.61v21.35c.93,6.1,6.19,10.66,12.32,10.71,6.21.05,11.59-4.53,12.53-10.71v-21.35"/>
    <path class="cls-5" d="M345.4,143.61h24.85"/>
    <path class="cls-5" d="M345.4,143.61h24.09"/>
    <path class="cls-5" d="M357.07,143.61c-.04,10.69-.07,21.38-.11,32.06"/>
    <path class="cls-5" d="M389.43,143.61v32.06"/>
    <path class="cls-4" d="M464.41,175.68v-32.07c8.21,10.69,16.42,21.38,24.64,32.07v-32.07"/>
    <path class="cls-3" d="M201.23,63.42v35.04c1.44,11.98,11.72,21.09,23.78,21.09s22.34-9.11,23.78-21.09v-35.04"/>
    <path class="cls-3" d="M318.73,82.27c-2.56-10.15-11.76-17.31-22.23-17.31s-19.66,7.17-22.23,17.31"/>
    <path class="cls-3" d="M318.73,82.27v37.28"/>
    <path class="cls-3" d="M318.73,82.27c2.4-10.11,11.51-17.31,21.9-17.31s19.5,7.2,21.9,17.31v37.28"/>
  </g>
</svg>