<?xml version="1.0" encoding="utf-8"?>
<svg xmlns="http://www.w3.org/2000/svg" viewBox="499.69 0.472 79.006 102.39">
  <svg width="1500" height="109" data-version="2" data-id="lg_qXGbZ05cNB2got1IA0" viewBox="0 0 507 109" x="0" y="0" transform="matrix(0.9999999999999999, 0, 0, 0.9999999999999999, -5.296287206888792, 77.92772977982288)">
    <path fill="#273380" d="M34.283 29.14h3.06v70.35h-3.06Zm18.35 0h3.06V84.2h24.47v3.06h-24.47v3.05h24.47v3.06h-24.47v3.06h24.47v3.06h-27.53Zm-6.12 0h3.06v70.35h-3.06Zm-6.11 0h3.06v70.35h-3.06Z"/>
    <rect width="45.88" height="70.35" x="-22.94" y="-35.17" fill="none" rx="0" ry="0" transform="translate(57.72 64.81)"/>
    <path fill="#273380" stroke="#273380" stroke-width="3" d="M34.67 21.534 30.572 2.72m-3.671 25.625L6.337 19.643m21.456 18.642-16.29 12.628m45.665-40.522-10.32 14.168"/>
    <rect width="17.63" height="28.55" x="-8.81" y="-14.28" fill="none" rx="0" ry="0" transform="translate(111.87 44.4)"/>
    <rect width="23.44" height="28.94" x="-11.72" y="-14.47" fill="none" rx="0" ry="0" transform="translate(137.17 44.59)"/>
    <rect width="30.53" height="28.55" x="-15.27" y="-14.28" fill="none" rx="0" ry="0" transform="translate(171.15 44.4)"/>
    <rect width="6.06" height="28.55" x="-3.03" y="-14.28" fill="none" rx="0" ry="0" transform="translate(196.62 44.4)"/>
    <rect width="25.33" height="28.55" x="-12.66" y="-14.28" fill="none" rx="0" ry="0" transform="translate(219.5 44.4)"/>
    <rect width="27.6" height="28.67" x="-13.8" y="-14.34" fill="none" rx="0" ry="0" transform="translate(249.56 44.34)"/>
    <rect width="18.61" height="29.35" x="-9.3" y="-14.68" fill="none" rx="0" ry="0" transform="translate(284.9 44.38)"/>
    <rect width="27.19" height="29.39" x="-13.6" y="-14.7" fill="none" rx="0" ry="0" transform="translate(311.7 44.37)"/>
    <rect width="17.64" height="28.55" x="-8.82" y="-14.28" fill="none" rx="0" ry="0" transform="translate(340.03 44.4)"/>
    <rect width="23.44" height="28.94" x="-11.72" y="-14.47" fill="none" rx="0" ry="0" transform="translate(365.33 44.59)"/>
    <rect width="21.56" height="28.55" x="-10.78" y="-14.28" fill="none" rx="0" ry="0" transform="translate(392.03 44.4)"/>
    <rect width="6.05" height="28.55" x="-3.02" y="-14.28" fill="none" rx="0" ry="0" transform="translate(410.24 44.4)"/>
    <rect width="27.19" height="29.39" x="-13.6" y="-14.7" fill="none" rx="0" ry="0" transform="translate(432.78 44.37)"/>
    <rect width="25.34" height="28.55" x="-12.67" y="-14.28" fill="none" rx="0" ry="0" transform="translate(464.95 44.4)"/>
    <rect width="18.61" height="29.35" x="-9.3" y="-14.68" fill="none" rx="0" ry="0" transform="translate(492.36 44.38)"/>
    <rect width="13.17" height="21.55" x="-6.58" y="-10.78" fill="none" rx="0" ry="0" transform="translate(107.6 90.06)"/>
    <rect width="12.7" height="15.53" x="-6.35" y="-7.76" fill="none" rx="0" ry="0" transform="translate(124.5 93.06)"/>
    <rect width="10.68" height="15.53" x="-5.34" y="-7.76" fill="none" rx="0" ry="0" transform="translate(139.05 93.06)"/>
    <rect width="2.73" height="20.59" x="-1.36" y="-10.29" fill="none" rx="0" ry="0" transform="translate(149.2 90.25)"/>
    <rect width="14.22" height="22.01" x="-7.11" y="-11.01" fill="none" rx="0" ry="0" transform="translate(160.25 96.28)"/>
    <rect width="12.5" height="15.25" x="-6.25" y="-7.63" fill="none" rx="0" ry="0" transform="translate(176.56 92.92)"/>
    <rect width="21.05" height="14.99" x="-10.53" y="-7.5" fill="none" rx="0" ry="0" transform="translate(203.22 93.03)"/>
    <rect width="2.74" height="20.59" x="-1.37" y="-10.29" fill="none" rx="0" ry="0" transform="translate(217.62 90.25)"/>
    <rect width="8.9" height="18.73" x="-4.45" y="-9.37" fill="none" rx="0" ry="0" transform="translate(226.02 91.47)"/>
    <rect width="12.49" height="21.27" x="-6.25" y="-10.63" fill="none" rx="0" ry="0" transform="translate(239.76 89.92)"/>
    <rect width="13.18" height="21.95" x="-6.59" y="-10.97" fill="none" rx="0" ry="0" transform="translate(264.54 96.28)"/>
    <rect width="12.53" height="15.26" x="-6.26" y="-7.63" fill="none" rx="0" ry="0" transform="translate(281.19 93.2)"/>
    <rect width="8.63" height="15.25" x="-4.32" y="-7.63" fill="none" rx="0" ry="0" transform="translate(296.57 92.92)"/>
    <rect width="13.18" height="21.95" x="-6.59" y="-10.97" fill="none" rx="0" ry="0" transform="translate(310.3 96.28)"/>
    <rect width="13.76" height="15.53" x="-6.88" y="-7.76" fill="none" rx="0" ry="0" transform="translate(326.87 93.06)"/>
    <rect width="10.67" height="15.53" x="-5.33" y="-7.76" fill="none" rx="0" ry="0" transform="translate(342.03 93.06)"/>
    <rect width="12.7" height="15.53" x="-6.35" y="-7.76" fill="none" rx="0" ry="0" transform="translate(356.53 93.06)"/>
  </svg>
</svg>