<svg xmlns="http://www.w3.org/2000/svg" version="1.1" xmlns:xlink="http://www.w3.org/1999/xlink" width="1500" height="109" viewBox="0 0 1500 109"><svg xml:space="preserve" width="1500" height="109" data-version="2" data-id="lg_qXGbZ05cNB2got1IA0" viewBox="0 0 507 109" x="0" y="0"><rect width="100%" height="100%" fill="transparent"></rect><path fill="#273380" d="M34.283 29.14h3.06v70.35h-3.06Zm18.35 0h3.06V84.2h24.47v3.06h-24.47v3.05h24.47v3.06h-24.47v3.06h24.47v3.06h-27.53Zm-6.12 0h3.06v70.35h-3.06Zm-6.11 0h3.06v70.35h-3.06Z"></path><rect width="45.88" height="70.35" x="-22.94" y="-35.17" fill="none" rx="0" ry="0" transform="translate(57.72 64.81)"></rect><path fill="#273380" stroke="#273380" stroke-width="3" d="M34.67 21.534 30.572 2.72m-3.671 25.625L6.337 19.643m21.456 18.642-16.29 12.628m45.665-40.522-10.32 14.168"></path><path fill="#273380" d="M102.553 58.17V29.62h6.05v23.55h11.58v5Z"></path><rect width="17.63" height="28.55" x="-8.81" y="-14.28" fill="none" rx="0" ry="0" transform="translate(111.87 44.4)"></rect><path fill="#273380" d="M148.393 29.62v18.47q0 2.95-1.3 5.32-1.3 2.38-3.93 3.76-2.63 1.39-6.61 1.39-5.66 0-8.63-2.89-2.97-2.89-2.97-7.66V29.62h6.03V47.1q0 3.53 1.45 4.96 1.44 1.42 4.28 1.42 1.99 0 3.23-.68t1.82-2.11q.59-1.43.59-3.63V29.62Z"></path><rect width="23.44" height="28.94" x="-11.72" y="-14.47" fill="none" rx="0" ry="0" transform="translate(137.17 44.59)"></rect><path fill="#273380" d="m167.473 58.17-6.88-22.4h-.17l.12 2.41q.09 1.61.17 3.43.08 1.81.08 3.28v13.28h-5.41V29.62h8.24l6.76 21.83h.12l7.16-21.83h8.25v28.55h-5.65V44.65q0-1.34.05-3.1t.13-3.35q.07-1.59.11-2.39h-.17l-7.37 22.36Z"></path><rect width="30.53" height="28.55" x="-15.27" y="-14.28" fill="none" rx="0" ry="0" transform="translate(171.15 44.4)"></rect><path fill="#273380" d="M193.093 58.17V29.62h6.06v28.55Z"></path><rect width="6.06" height="28.55" x="-3.03" y="-14.28" fill="none" rx="0" ry="0" transform="translate(196.62 44.4)"></rect><path fill="#273380" d="M231.673 58.17h-7.7l-12.42-21.6h-.18q.08 1.35.14 2.71l.12 2.73.12 2.72v13.44h-5.41V29.62h7.63l12.4 21.38h.14q-.04-1.33-.1-2.63-.06-1.31-.1-2.62-.05-1.31-.09-2.62V29.62h5.45Z"></path><rect width="25.33" height="28.55" x="-12.66" y="-14.28" fill="none" rx="0" ry="0" transform="translate(219.5 44.4)"></rect><path fill="#273380" d="m256.343 58.17-2.08-6.8h-10.41l-2.07 6.8h-6.52l10.08-28.67h7.4l10.12 28.67Zm-3.52-11.87-2.07-6.65q-.2-.66-.52-1.7-.32-1.05-.64-2.13-.33-1.09-.52-1.89-.2.8-.54 1.98-.34 1.19-.65 2.24-.31 1.06-.45 1.5l-2.05 6.65Z"></path><rect width="27.6" height="28.67" x="-13.8" y="-14.34" fill="none" rx="0" ry="0" transform="translate(249.56 44.34)"></rect><path fill="#273380" d="M293.703 50.24q0 2.54-1.23 4.41-1.23 1.88-3.59 2.9-2.35 1.01-5.71 1.01-1.48 0-2.9-.19-1.42-.2-2.71-.58-1.3-.38-2.47-.95v-5.62q2.03.9 4.21 1.62 2.19.72 4.34.72 1.48 0 2.39-.39.91-.39 1.32-1.07.41-.69.41-1.57 0-1.07-.72-1.83t-1.98-1.43q-1.26-.66-2.85-1.42-.99-.47-2.16-1.15-1.18-.67-2.23-1.65-1.06-.97-1.73-2.37-.67-1.4-.67-3.35 0-2.56 1.17-4.37 1.17-1.82 3.35-2.79 2.18-.96 5.15-.96 2.22 0 4.24.51 2.02.52 4.23 1.5l-1.95 4.7q-1.97-.8-3.54-1.24-1.56-.44-3.18-.44-1.13 0-1.93.37-.8.36-1.21 1.01-.41.66-.41 1.52 0 1.01.59 1.7.6.7 1.8 1.34 1.2.65 3 1.51 2.18 1.03 3.74 2.15 1.55 1.13 2.39 2.64.84 1.51.84 3.76"></path><rect width="18.61" height="29.35" x="-9.3" y="-14.68" fill="none" rx="0" ry="0" transform="translate(284.9 44.38)"></rect><path fill="#273380" d="M324.793 43.85q0 3.3-.82 6.01t-2.49 4.66q-1.67 1.95-4.23 3-2.56 1.04-6.05 1.04-3.5 0-6.06-1.04-2.55-1.05-4.22-3t-2.5-4.67q-.82-2.71-.82-6.03 0-4.44 1.46-7.73 1.45-3.29 4.48-5.11 3.03-1.81 7.7-1.81 4.65 0 7.64 1.81 3 1.82 4.46 5.12 1.45 3.3 1.45 7.75m-20.84 0q0 2.99.75 5.15.76 2.16 2.36 3.32 1.6 1.16 4.14 1.16 2.58 0 4.18-1.16 1.6-1.16 2.33-3.32t.73-5.15q0-4.49-1.68-7.07-1.67-2.57-5.52-2.57-2.56 0-4.17 1.16-1.61 1.16-2.37 3.32-.75 2.16-.75 5.16"></path><rect width="27.19" height="29.39" x="-13.6" y="-14.7" fill="none" rx="0" ry="0" transform="translate(311.7 44.37)"></rect><path fill="#273380" d="M330.713 58.17V29.62h6.05v23.55h11.59v5Z"></path><rect width="17.64" height="28.55" x="-8.82" y="-14.28" fill="none" rx="0" ry="0" transform="translate(340.03 44.4)"></rect><path fill="#273380" d="M376.553 29.62v18.47q0 2.95-1.3 5.32-1.3 2.38-3.92 3.76-2.63 1.39-6.62 1.39-5.66 0-8.63-2.89-2.97-2.89-2.97-7.66V29.62h6.04V47.1q0 3.53 1.44 4.96 1.45 1.42 4.28 1.42 1.99 0 3.23-.68t1.83-2.11q.58-1.43.58-3.63V29.62Z"></path><rect width="23.44" height="28.94" x="-11.72" y="-14.47" fill="none" rx="0" ry="0" transform="translate(365.33 44.59)"></rect><path fill="#273380" d="M394.563 58.17h-6.06V34.65h-7.75v-5.03h21.56v5.03h-7.75Z"></path><rect width="21.56" height="28.55" x="-10.78" y="-14.28" fill="none" rx="0" ry="0" transform="translate(392.03 44.4)"></rect><path fill="#273380" d="M406.713 58.17V29.62h6.05v28.55Z"></path><rect width="6.05" height="28.55" x="-3.02" y="-14.28" fill="none" rx="0" ry="0" transform="translate(410.24 44.4)"></rect><path fill="#273380" d="M445.873 43.85q0 3.3-.82 6.01t-2.49 4.66q-1.67 1.95-4.23 3-2.56 1.04-6.06 1.04-3.49 0-6.05-1.04-2.56-1.05-4.23-3-1.67-1.95-2.49-4.67-.82-2.71-.82-6.03 0-4.44 1.45-7.73 1.46-3.29 4.49-5.11 3.02-1.81 7.69-1.81 4.65 0 7.65 1.81 3 1.82 4.45 5.12 1.46 3.3 1.46 7.75m-20.84 0q0 2.99.75 5.15t2.35 3.32q1.6 1.16 4.14 1.16 2.58 0 4.18-1.16 1.6-1.16 2.34-3.32.73-2.16.73-5.15 0-4.49-1.68-7.07-1.68-2.57-5.53-2.57-2.56 0-4.17 1.16-1.61 1.16-2.36 3.32-.75 2.16-.75 5.16"></path><rect width="27.19" height="29.39" x="-13.6" y="-14.7" fill="none" rx="0" ry="0" transform="translate(432.78 44.37)"></rect><path fill="#273380" d="M477.123 58.17h-7.7l-12.42-21.6h-.18q.08 1.35.14 2.71l.12 2.73q.06 1.36.11 2.72v13.44h-5.41V29.62h7.64l12.4 21.38h.14q-.04-1.33-.1-2.63-.06-1.31-.1-2.62-.05-1.31-.09-2.62V29.62h5.45Z"></path><rect width="25.34" height="28.55" x="-12.67" y="-14.28" fill="none" rx="0" ry="0" transform="translate(464.95 44.4)"></rect><path fill="#273380" d="M501.163 50.24q0 2.54-1.23 4.41-1.23 1.88-3.59 2.9-2.35 1.01-5.71 1.01-1.48 0-2.9-.19-1.41-.2-2.71-.58-1.3-.38-2.47-.95v-5.62q2.03.9 4.21 1.62 2.19.72 4.34.72 1.49 0 2.39-.39.91-.39 1.32-1.07.41-.69.41-1.57 0-1.07-.72-1.83t-1.98-1.43q-1.26-.66-2.85-1.42-.99-.47-2.16-1.15-1.17-.67-2.23-1.65-1.05-.97-1.73-2.37-.67-1.4-.67-3.35 0-2.56 1.17-4.37 1.17-1.82 3.35-2.79 2.18-.96 5.15-.96 2.22 0 4.24.51 2.03.52 4.23 1.5l-1.95 4.7q-1.97-.8-3.54-1.24-1.56-.44-3.18-.44-1.13 0-1.93.37-.8.36-1.21 1.01-.41.66-.41 1.52 0 1.01.59 1.7.6.7 1.8 1.34 1.2.65 3 1.51 2.18 1.03 3.74 2.15 1.55 1.13 2.39 2.64.84 1.51.84 3.76"></path><rect width="18.61" height="29.35" x="-9.3" y="-14.68" fill="none" rx="0" ry="0" transform="translate(492.36 44.38)"></rect><path fill="#273380" d="M106.683 100.33q-2.85 0-4.51-1.95-1.66-1.94-1.66-5.76 0-3.87 1.7-5.85 1.69-1.97 4.51-1.97 1.19 0 2.08.31.88.31 1.53.84.64.53 1.08 1.2h.16q-.05-.43-.11-1.17-.05-.73-.05-1.2v-6h2.27v21.27h-1.84l-.34-2.13h-.09q-.43.67-1.08 1.22-.65.54-1.54.86-.9.33-2.11.33m.35-1.89q2.41 0 3.41-1.37.99-1.36.99-4.06v-.41q0-2.86-.95-4.39-.95-1.53-3.45-1.53-2.09 0-3.13 1.61-1.04 1.6-1.04 4.38 0 2.76 1.03 4.27 1.04 1.5 3.14 1.5"></path><rect width="13.17" height="21.55" x="-6.58" y="-10.78" fill="none" rx="0" ry="0" transform="translate(107.6 90.06)"></rect><path fill="#273380" d="M124.253 84.8q1.91 0 3.28.84 1.36.85 2.09 2.37.72 1.53.72 3.57v1.4h-10.35q.04 2.64 1.32 4.02 1.27 1.38 3.58 1.38 1.42 0 2.51-.25 1.1-.26 2.27-.77v2q-1.13.5-2.25.73-1.11.24-2.63.24-2.16 0-3.76-.89-1.61-.88-2.5-2.59-.89-1.71-.89-4.18 0-2.42.82-4.19.81-1.77 2.29-2.73 1.49-.95 3.5-.95m-.03 1.85q-1.82 0-2.9 1.19-1.08 1.19-1.29 3.33h7.93q-.01-1.34-.41-2.36-.41-1.02-1.23-1.59-.82-.57-2.1-.57"></path><rect width="12.7" height="15.53" x="-6.35" y="-7.76" fill="none" rx="0" ry="0" transform="translate(124.5 93.06)"></rect><path fill="#273380" d="M143.893 95.95q0 1.44-.72 2.41-.71.98-2.05 1.47-1.33.5-3.18.5-1.57 0-2.72-.25-1.14-.25-2.01-.7v-2.09q.92.45 2.19.82 1.27.37 2.6.37 1.94 0 2.82-.63.87-.63.87-1.71 0-.61-.35-1.08-.35-.48-1.17-.92-.82-.44-2.27-.98-1.43-.54-2.48-1.08-1.04-.54-1.61-1.32-.57-.78-.57-2.03 0-1.9 1.54-2.92 1.54-1.01 4.04-1.01 1.35 0 2.54.26 1.18.27 2.2.72l-.76 1.82q-.93-.4-1.98-.67-1.06-.28-2.15-.28-1.57 0-2.41.52-.84.52-.84 1.43 0 .69.38 1.14.39.46 1.26.85.86.4 2.27.93 1.4.52 2.43 1.07 1.02.56 1.58 1.34.55.79.55 2.02"></path><rect width="10.68" height="15.53" x="-5.34" y="-7.76" fill="none" rx="0" ry="0" transform="translate(139.05 93.06)"></rect><path fill="#273380" d="M149.813 85.07v14.98h-2.27V85.07Zm-1.11-5.61q.56 0 .97.37.4.36.4 1.12 0 .76-.4 1.12-.41.37-.97.37-.58 0-.97-.37-.39-.36-.39-1.12 0-.76.39-1.12.39-.37.97-.37"></path><rect width="2.73" height="20.59" x="-1.36" y="-10.29" fill="none" rx="0" ry="0" transform="translate(149.2 90.25)"></rect><path fill="#273380" d="M158.793 106.78q-2.95 0-4.55-1.1-1.6-1.1-1.6-3.08 0-1.41.9-2.41.89-1 2.48-1.33-.59-.27-1.01-.82-.41-.54-.41-1.25 0-.83.45-1.45.46-.62 1.41-1.19-1.18-.48-1.91-1.62-.73-1.15-.73-2.66 0-1.62.67-2.76.67-1.14 1.94-1.74 1.27-.6 3.08-.6.39 0 .79.03.41.04.78.1.37.06.64.14h5.14v1.46l-2.76.35q.41.53.68 1.28.28.75.28 1.67 0 2.24-1.52 3.56-1.52 1.32-4.17 1.32-.63 0-1.29-.11-.67.37-1.02.82-.34.45-.34 1.04 0 .44.26.7.27.26.78.37.5.12 1.21.12h2.64q2.45 0 3.75 1.02 1.31 1.03 1.31 3 0 2.49-2.02 3.81-2.03 1.33-5.86 1.33m.07-1.78q1.86 0 3.09-.37 1.22-.38 1.83-1.08.61-.71.61-1.68 0-.9-.41-1.36-.41-.46-1.21-.61-.79-.16-1.94-.16h-2.6q-1.01 0-1.76.31-.75.32-1.16.93-.4.62-.4 1.53 0 1.22 1.03 1.86 1.02.63 2.92.63m.59-11.97q1.63 0 2.45-.82.82-.83.82-2.4 0-1.68-.84-2.52-.83-.84-2.46-.84-1.56 0-2.4.87-.84.87-.84 2.53 0 1.53.85 2.36.85.82 2.42.82"></path><rect width="14.22" height="22.01" x="-7.11" y="-11.01" fill="none" rx="0" ry="0" transform="translate(160.25 96.28)"></rect><path fill="#273380" d="M176.913 84.8q2.67 0 4.03 1.3 1.37 1.31 1.37 4.19v9.76h-2.24v-9.61q0-1.87-.86-2.8-.85-.93-2.62-.93-2.48 0-3.5 1.41-1.01 1.41-1.01 4.09v7.84h-2.27V85.07h1.84l.34 2.16h.12q.48-.79 1.22-1.33t1.65-.82q.92-.28 1.93-.28"></path><rect width="12.5" height="15.25" x="-6.25" y="-7.63" fill="none" rx="0" ry="0" transform="translate(176.56 92.92)"></rect><path fill="#273380" d="m206.453 100.03-2.66-8.73q-.18-.56-.34-1.1-.15-.54-.28-1.04l-.24-.93q-.1-.43-.17-.74h-.09q-.06.31-.15.74-.1.43-.23.94t-.28 1.06q-.15.55-.34 1.11l-2.79 8.69h-2.56l-4.13-14.99h2.36l2.16 8.27q.21.82.41 1.62.2.8.34 1.51.15.7.22 1.22h.11q.08-.34.18-.82.1-.48.23-1.02t.28-1.08q.15-.54.3-1.02l2.77-8.68h2.44l2.67 8.67q.2.66.4 1.37.2.71.36 1.37.17.66.24 1.18h.11q.05-.46.2-1.15.15-.68.35-1.5.2-.82.42-1.67l2.18-8.27h2.32l-4.15 14.99Z"></path><rect width="21.05" height="14.99" x="-10.53" y="-7.5" fill="none" rx="0" ry="0" transform="translate(203.22 93.03)"></rect><path fill="#273380" d="M218.233 85.07v14.98h-2.27V85.07Zm-1.11-5.61q.56 0 .96.37.41.36.41 1.12 0 .76-.41 1.12-.4.37-.96.37-.59 0-.98-.37-.39-.36-.39-1.12 0-.76.39-1.12.39-.37.98-.37"></path><rect width="2.74" height="20.59" x="-1.37" y="-10.29" fill="none" rx="0" ry="0" transform="translate(217.62 90.25)"></rect><path fill="#273380" d="M227.863 98.47q.56 0 1.15-.1.59-.09.96-.23v1.76q-.4.18-1.1.3-.7.13-1.37.13-1.19 0-2.16-.42-.98-.42-1.56-1.42-.58-.99-.58-2.76v-8.88h-2.13v-1.11l2.15-.89.9-3.25h1.37v3.47h4.38v1.78h-4.38v8.81q0 1.41.64 2.11.65.7 1.73.7"></path><rect width="8.9" height="18.73" x="-4.45" y="-9.37" fill="none" rx="0" ry="0" transform="translate(226.02 91.47)"></rect><path fill="#273380" d="M235.273 78.78v6.36q0 .54-.02 1.1-.03.55-.1 1.02h.15q.47-.8 1.18-1.34.72-.54 1.64-.82.91-.28 1.94-.28 1.8 0 3.01.58 1.21.57 1.82 1.77.61 1.21.61 3.12v9.76h-2.24v-9.61q0-1.87-.86-2.8-.85-.93-2.61-.93-1.67 0-2.66.63-.99.64-1.42 1.87-.44 1.23-.44 3.01v7.83h-2.26V78.78Z"></path><rect width="12.49" height="21.27" x="-6.25" y="-10.63" fill="none" rx="0" ry="0" transform="translate(239.76 89.92)"></rect><path fill="#273380" d="M264.493 84.8q2.8 0 4.47 1.92 1.67 1.93 1.67 5.8 0 2.56-.77 4.29-.76 1.74-2.15 2.63-1.39.89-3.27.89-1.19 0-2.1-.32-.9-.31-1.54-.85-.64-.53-1.07-1.16h-.16q.04.54.1 1.29.06.75.06 1.31v6.15h-2.28V85.07h1.87l.3 2.21h.11q.44-.68 1.07-1.25.63-.57 1.54-.9.91-.33 2.15-.33m-.4 1.91q-1.55 0-2.5.6t-1.39 1.8q-.44 1.19-.47 3v.44q0 1.9.42 3.21t1.38 2q.97.68 2.59.68 1.4 0 2.33-.75.93-.75 1.38-2.1.46-1.35.46-3.1 0-2.65-1.03-4.22-1.03-1.56-3.17-1.56"></path><rect width="13.18" height="21.95" x="-6.59" y="-10.97" fill="none" rx="0" ry="0" transform="translate(264.54 96.28)"></rect><path fill="#273380" d="M286.953 85.07v14.98h-1.86l-.32-2.1h-.13q-.46.78-1.2 1.31t-1.66.8q-.92.27-1.96.27-1.78 0-2.98-.58-1.21-.57-1.81-1.78-.61-1.2-.61-3.09v-9.81h2.29v9.65q0 1.87.85 2.8.85.92 2.59.92 1.66 0 2.65-.63 1-.63 1.43-1.85.44-1.23.44-3v-7.89Z"></path><rect width="12.53" height="15.26" x="-6.26" y="-7.63" fill="none" rx="0" ry="0" transform="translate(281.19 93.2)"></rect><path fill="#273380" d="M298.563 84.8q.45 0 .95.04.49.05.87.13l-.29 2.11q-.37-.1-.82-.15-.45-.06-.85-.06-.9 0-1.7.37-.8.36-1.4 1.03-.6.68-.94 1.63-.34.95-.34 2.11v8.04h-2.29V85.07h1.89l.25 2.76h.09q.47-.83 1.12-1.52.66-.69 1.53-1.1.87-.41 1.93-.41"></path><rect width="8.63" height="15.25" x="-4.32" y="-7.63" fill="none" rx="0" ry="0" transform="translate(296.57 92.92)"></rect><path fill="#273380" d="M310.243 84.8q2.8 0 4.47 1.92 1.67 1.93 1.67 5.8 0 2.56-.77 4.29-.77 1.74-2.15 2.63-1.39.89-3.28.89-1.19 0-2.09-.32-.9-.31-1.54-.85-.65-.53-1.07-1.16h-.16q.04.54.1 1.29.06.75.06 1.31v6.15h-2.28V85.07h1.87l.3 2.21h.11q.44-.68 1.07-1.25.62-.57 1.53-.9.91-.33 2.16-.33m-.4 1.91q-1.56 0-2.51.6-.95.6-1.39 1.8-.43 1.19-.46 3v.44q0 1.9.42 3.21.41 1.31 1.38 2 .96.68 2.59.68 1.39 0 2.32-.75.93-.75 1.39-2.1.46-1.35.46-3.1 0-2.65-1.03-4.22-1.04-1.56-3.17-1.56"></path><rect width="13.18" height="21.95" x="-6.59" y="-10.97" fill="none" rx="0" ry="0" transform="translate(310.3 96.28)"></rect><path fill="#273380" d="M333.253 92.53q0 1.85-.48 3.3-.48 1.45-1.38 2.45-.9.99-2.18 1.52-1.28.53-2.89.53-1.51 0-2.76-.53-1.25-.53-2.16-1.52-.91-1-1.41-2.45-.5-1.45-.5-3.3 0-2.46.84-4.19.83-1.73 2.38-2.64 1.55-.9 3.7-.9 2.05 0 3.59.91 1.54.92 2.39 2.65.86 1.73.86 4.17m-11.41 0q0 1.81.48 3.13.48 1.33 1.48 2.05 1 .73 2.57.73 1.56 0 2.56-.73 1.01-.72 1.49-2.05.48-1.32.48-3.13 0-1.79-.48-3.09-.48-1.31-1.48-2.02t-2.58-.71q-2.34 0-3.43 1.54-1.09 1.55-1.09 4.28"></path><rect width="13.76" height="15.53" x="-6.88" y="-7.76" fill="none" rx="0" ry="0" transform="translate(326.87 93.06)"></rect><path fill="#273380" d="M346.863 95.95q0 1.44-.71 2.41-.72.98-2.05 1.47-1.34.5-3.18.5-1.58 0-2.72-.25-1.15-.25-2.01-.7v-2.09q.91.45 2.18.82 1.28.37 2.6.37 1.94 0 2.82-.63.87-.63.87-1.71 0-.61-.35-1.08-.34-.48-1.16-.92-.82-.44-2.27-.98-1.44-.54-2.49-1.08-1.04-.54-1.61-1.32-.57-.78-.57-2.03 0-1.9 1.54-2.92 1.54-1.01 4.04-1.01 1.36 0 2.54.26 1.18.27 2.21.72l-.77 1.82q-.93-.4-1.98-.67-1.05-.28-2.15-.28-1.57 0-2.41.52-.84.52-.84 1.43 0 .69.39 1.14.39.46 1.25.85.86.4 2.27.93 1.41.52 2.43 1.07 1.03.56 1.58 1.34.55.79.55 2.02"></path><rect width="10.67" height="15.53" x="-5.33" y="-7.76" fill="none" rx="0" ry="0" transform="translate(342.03 93.06)"></rect><path fill="#273380" d="M356.283 84.8q1.92 0 3.29.84 1.36.85 2.09 2.37.72 1.53.72 3.57v1.4h-10.35q.04 2.64 1.31 4.02 1.28 1.38 3.59 1.38 1.42 0 2.51-.25 1.1-.26 2.27-.77v2q-1.13.5-2.25.73-1.11.24-2.63.24-2.16 0-3.77-.89-1.6-.88-2.49-2.59-.89-1.71-.89-4.18 0-2.42.81-4.19.82-1.77 2.3-2.73 1.48-.95 3.49-.95m-.02 1.85q-1.82 0-2.9 1.19-1.08 1.19-1.29 3.33h7.93q-.01-1.34-.41-2.36-.41-1.02-1.23-1.59-.82-.57-2.1-.57"></path><rect width="12.7" height="15.53" x="-6.35" y="-7.76" fill="none" rx="0" ry="0" transform="translate(356.53 93.06)"></rect><path stroke="#273380" stroke-width="3" d="M100.001 63.991h163.206"></path></svg></svg>